<svg xmlns="http://www.w3.org/2000/svg" width="880" height="60" viewBox="0 0 880 60" role="img" aria-label="04 / ACTIVITY — A year of contributions"><title>04 / ACTIVITY — A year of contributions</title><defs><path id="b11_5-zero" d="M3.9 0.1Q2.8 0.1 2.1 -0.4Q1.3 -0.9 0.9 -1.9Q0.5 -2.8 0.5 -4.2Q0.5 -5.5 0.9 -6.5Q1.3 -7.5 2.1 -8Q2.8 -8.5 3.9 -8.5Q5 -8.5 5.7 -8Q6.5 -7.5 6.9 -6.5Q7.3 -5.5 7.3 -4.2Q7.3 -2.8 6.9 -1.9Q6.5 -0.9 5.7 -0.4Q5 0.1 3.9 0.1ZM3.9 -1.4Q4.4 -1.4 4.8 -1.7Q5.1 -2 5.3 -2.6Q5.5 -3.3 5.5 -4.2Q5.5 -5.1 5.3 -5.7Q5.1 -6.4 4.8 -6.7Q4.4 -7 3.9 -7Q3.4 -7 3 -6.7Q2.7 -6.4 2.5 -5.7Q2.3 -5.1 2.3 -4.2Q2.3 -3.3 2.5 -2.6Q2.7 -2 3 -1.7Q3.4 -1.4 3.9 -1.4Z"/><path id="b11_5-four" d="M0.6 -1.5V-2.9L4 -8.4H5.2V-6.4H4.5L2.3 -3V-2.9H7.3V-1.5ZM4.6 0V-1.9L4.6 -2.5V-8.4H6.3V0Z"/><path id="b11_5-slash" d="M4.3 -8.8 1.7 1.3H0.1L2.8 -8.8Z"/><path id="b11_5-A" d="M0.3 0 3.1 -8.4H5.4L8.4 0H6.4L5.1 -4Q4.8 -4.8 4.6 -5.7Q4.3 -6.7 4.1 -7.8H4.5Q4.2 -6.7 4 -5.7Q3.7 -4.8 3.5 -4L2.2 0ZM2.1 -1.9V-3.3H6.6V-1.9Z"/><path id="b11_5-C" d="M4.4 0.1Q3.3 0.1 2.4 -0.4Q1.5 -0.9 1 -1.9Q0.5 -2.8 0.5 -4.2Q0.5 -5.5 1 -6.5Q1.5 -7.5 2.4 -8Q3.3 -8.5 4.4 -8.5Q5.1 -8.5 5.8 -8.3Q6.4 -8.1 6.9 -7.7Q7.3 -7.3 7.6 -6.8Q7.9 -6.2 8 -5.5H6.2Q6.2 -5.8 6 -6.1Q5.9 -6.4 5.6 -6.5Q5.4 -6.7 5.1 -6.8Q4.8 -6.9 4.5 -6.9Q3.8 -6.9 3.3 -6.6Q2.8 -6.3 2.6 -5.7Q2.3 -5 2.3 -4.2Q2.3 -3.3 2.6 -2.7Q2.9 -2.1 3.3 -1.8Q3.8 -1.5 4.4 -1.5Q4.8 -1.5 5.1 -1.5Q5.4 -1.6 5.6 -1.8Q5.9 -2 6 -2.3Q6.2 -2.5 6.2 -2.9H8Q8 -2.3 7.7 -1.8Q7.4 -1.2 7 -0.8Q6.5 -0.4 5.9 -0.1Q5.2 0.1 4.4 0.1Z"/><path id="b11_5-T" d="M0.4 -6.9V-8.4H7.3V-6.9H4.7V0H3V-6.9Z"/><path id="b11_5-I" d="M2.5 -8.4V0H0.7V-8.4Z"/><path id="b11_5-V" d="M3.2 0 0.3 -8.4H2.2L3.5 -4.4Q3.8 -3.6 4 -2.7Q4.3 -1.7 4.6 -0.7H4.2Q4.4 -1.8 4.7 -2.7Q4.9 -3.6 5.2 -4.4L6.4 -8.4H8.4L5.5 0Z"/><path id="b11_5-Y" d="M3.4 0V-3.1L0.3 -8.4H2.3L3.7 -5.8Q3.9 -5.4 4.1 -5Q4.3 -4.6 4.5 -4.1H4.1Q4.3 -4.6 4.4 -5Q4.6 -5.4 4.8 -5.8L6.1 -8.4H8.2L5.1 -3.1V0Z"/><path id="s28-A" d="M0.17 0V-1.26L3 -1.68H3.53L6.47 -1.26V0ZM1.96 0 8.37 -18.76H10.5L16.91 0H13.5L8.2 -16.02H8.76L8.62 -15.6L3.39 0ZM4.9 -5.82V-7.25H12.99V-5.82ZM10.42 0V-1.23L13.83 -1.65H14.84L18.37 -1.23V0Z"/><path id="s28-y" d="M2.69 6.89Q1.96 6.89 1.36 6.64Q0.76 6.38 0.39 5.94Q0.03 5.49 0 4.93Q0.17 4.2 0.74 3.85Q1.32 3.5 2.02 3.5Q2.58 3.5 3.11 3.74Q3.64 3.98 4.2 4.65L5.07 5.68L4 6.27L3.22 5.68Q4.06 5.21 4.7 4.51Q5.35 3.81 5.85 2.93Q6.36 2.04 6.69 1.06L7.22 -0.48L7.31 -0.73L9.83 -7.7L11.84 -13.38H13.5L8.26 0.31Q7.42 2.55 6.59 4Q5.77 5.46 4.83 6.17Q3.89 6.89 2.69 6.89ZM7.06 1.57 0.98 -13.38H4.37L8.34 -2.58L8.54 -2.02ZM0.06 -12.29V-13.38H7.17V-12.29L4.14 -11.87H2.72ZM9.1 -12.29V-13.38H14.5V-12.29L12.38 -11.87H11.82Z"/><path id="s28-e" d="M7.84 0.39Q5.82 0.39 4.3 -0.42Q2.77 -1.23 1.95 -2.79Q1.12 -4.34 1.12 -6.52Q1.12 -8.74 2 -10.36Q2.88 -11.98 4.4 -12.87Q5.91 -13.75 7.7 -13.75Q9.32 -13.75 10.56 -13.06Q11.79 -12.38 12.49 -11.14Q13.19 -9.91 13.19 -8.2Q13.19 -7.73 13.15 -7.35Q13.1 -6.97 13.02 -6.66H2.46V-7.92H8.48Q9.6 -7.92 9.94 -8.34Q10.28 -8.76 10.28 -9.49Q10.28 -10.47 9.95 -11.12Q9.63 -11.76 9.06 -12.1Q8.48 -12.43 7.7 -12.43Q6.86 -12.43 6.08 -11.9Q5.29 -11.37 4.8 -10.18Q4.31 -8.99 4.31 -6.94Q4.31 -5.24 4.86 -4.06Q5.4 -2.88 6.43 -2.3Q7.45 -1.71 8.76 -1.71Q10.02 -1.71 10.95 -2.13Q11.87 -2.55 12.66 -3.42L13.36 -2.86Q12.8 -1.85 12.05 -1.12Q11.31 -0.39 10.29 0Q9.27 0.39 7.84 0.39Z"/><path id="s28-a" d="M4.84 0.39Q3.3 0.39 2.21 -0.5Q1.12 -1.4 1.12 -3.14Q1.12 -4.03 1.51 -4.79Q1.9 -5.54 2.97 -6.22Q4.03 -6.89 6.02 -7.45Q6.78 -7.67 7.5 -7.87Q8.23 -8.06 8.96 -8.27Q9.69 -8.48 10.42 -8.68V-7.64Q9.46 -7.36 8.55 -7.06Q7.64 -6.75 6.8 -6.47Q5.68 -6.13 5.11 -5.66Q4.54 -5.18 4.35 -4.66Q4.17 -4.14 4.17 -3.61Q4.17 -2.55 4.76 -2.07Q5.35 -1.6 6.22 -1.6Q6.69 -1.6 7.11 -1.75Q7.53 -1.9 8.15 -2.3Q8.76 -2.69 9.77 -3.44L10.11 -2.02H9.18Q8.37 -1.23 7.74 -0.7Q7.11 -0.17 6.44 0.11Q5.77 0.39 4.84 0.39ZM11.65 0.31Q10.39 0.31 9.65 -0.43Q8.9 -1.18 8.85 -2.46V-2.58V-9.1Q8.85 -10.42 8.61 -11.13Q8.37 -11.84 7.81 -12.14Q7.25 -12.43 6.36 -12.43Q5.85 -12.43 5.25 -12.33Q4.65 -12.24 3.78 -11.96L5.21 -12.91L4.68 -10.67Q4.54 -9.77 4.1 -9.34Q3.67 -8.9 3.02 -8.9Q2.38 -8.9 2 -9.24Q1.62 -9.58 1.51 -10.14Q1.82 -11.79 3.35 -12.77Q4.87 -13.75 7.31 -13.75Q8.88 -13.75 9.88 -13.24Q10.89 -12.74 11.37 -11.65Q11.84 -10.56 11.84 -8.76V-2.69Q11.84 -1.96 12.1 -1.64Q12.35 -1.32 12.74 -1.32Q13.05 -1.32 13.29 -1.47Q13.52 -1.62 13.75 -1.93L14.36 -1.34Q13.86 -0.42 13.2 -0.06Q12.54 0.31 11.65 0.31Z"/><path id="s28-r" d="M1.04 0V-1.09L3.98 -1.65H5.4L8.32 -1.09V0ZM2.86 0Q2.88 -0.64 2.9 -1.69Q2.91 -2.74 2.93 -3.88Q2.94 -5.01 2.94 -5.88V-7.31Q2.94 -8.09 2.93 -8.65Q2.91 -9.21 2.9 -9.69Q2.88 -10.16 2.86 -10.72L0.81 -10.98V-12.01L5.26 -13.75L5.71 -13.47L6.02 -10V-9.94V-5.88Q6.02 -5.01 6.03 -3.88Q6.05 -2.74 6.06 -1.69Q6.08 -0.64 6.1 0ZM5.96 -7.76 5.35 -9.66H5.82Q6.24 -10.98 6.9 -11.89Q7.56 -12.8 8.36 -13.27Q9.16 -13.75 9.94 -13.75Q10.67 -13.75 11.27 -13.4Q11.87 -13.05 12.1 -12.38Q12.07 -11.37 11.62 -10.82Q11.17 -10.28 10.33 -10.28Q9.8 -10.28 9.35 -10.5Q8.9 -10.72 8.46 -11.17L7.7 -11.96L8.99 -12.01Q7.87 -11.37 7.13 -10.3Q6.38 -9.24 5.96 -7.76Z"/><path id="s28-o" d="M7.76 0.39Q5.94 0.39 4.42 -0.43Q2.91 -1.26 2.02 -2.84Q1.12 -4.42 1.12 -6.66Q1.12 -8.93 2.04 -10.51Q2.97 -12.1 4.48 -12.92Q5.99 -13.75 7.76 -13.75Q9.49 -13.75 11 -12.94Q12.52 -12.12 13.47 -10.53Q14.42 -8.93 14.42 -6.66Q14.42 -4.4 13.5 -2.81Q12.57 -1.23 11.06 -0.42Q9.55 0.39 7.76 0.39ZM7.76 -0.95Q8.82 -0.95 9.56 -1.58Q10.3 -2.21 10.68 -3.47Q11.06 -4.73 11.06 -6.64Q11.06 -8.57 10.68 -9.86Q10.3 -11.14 9.56 -11.77Q8.82 -12.4 7.76 -12.4Q6.69 -12.4 5.95 -11.77Q5.21 -11.14 4.83 -9.86Q4.45 -8.57 4.45 -6.64Q4.45 -4.73 4.83 -3.47Q5.21 -2.21 5.95 -1.58Q6.69 -0.95 7.76 -0.95Z"/><path id="s28-f" d="M0.95 0V-1.09L3.98 -1.65H5.35L8.51 -1.09V0ZM2.91 0Q2.94 -0.98 2.95 -1.96Q2.97 -2.94 2.98 -3.92Q3 -4.9 3 -5.88V-11.76H0.84V-13.13L4.09 -13.55L3 -12.99L3.02 -13.22Q3.19 -14.7 3.42 -15.79Q3.64 -16.88 4.1 -17.74Q4.56 -18.59 5.35 -19.32Q6.24 -20.16 7.27 -20.52Q8.29 -20.89 9.32 -20.89Q10.36 -20.89 11.19 -20.5Q12.01 -20.1 12.24 -19.21Q12.21 -18.59 11.73 -18.16Q11.26 -17.72 10.42 -17.72Q9.83 -17.72 9.31 -18.02Q8.79 -18.31 8.23 -18.96L7.14 -19.96V-20.27H8.99V-20.05Q8.34 -19.94 7.88 -19.67Q7.42 -19.4 7 -18.76Q6.72 -18.28 6.5 -17.72Q6.27 -17.16 6.15 -16.42Q6.02 -15.68 5.99 -14.64Q5.96 -13.61 6.05 -12.15V-5.88Q6.05 -4.9 6.06 -3.92Q6.08 -2.94 6.09 -1.96Q6.1 -0.98 6.13 0ZM4.54 -11.76V-13.38H9.58V-11.76Z"/><path id="s28-c" d="M7.73 0.39Q5.68 0.39 4.2 -0.45Q2.72 -1.29 1.92 -2.84Q1.12 -4.4 1.12 -6.55Q1.12 -8.85 2.03 -10.44Q2.94 -12.04 4.49 -12.89Q6.05 -13.75 7.87 -13.75Q9.21 -13.75 10.32 -13.26Q11.42 -12.77 12.14 -11.9Q12.85 -11.03 12.99 -9.97Q12.82 -9.38 12.46 -9.09Q12.1 -8.79 11.51 -8.79Q10.75 -8.79 10.32 -9.24Q9.88 -9.69 9.77 -10.56L9.21 -12.85L10.78 -11.76Q10.11 -12.12 9.45 -12.28Q8.79 -12.43 8.18 -12.43Q7.11 -12.43 6.23 -11.83Q5.35 -11.23 4.83 -10.01Q4.31 -8.79 4.31 -6.97Q4.31 -5.15 4.89 -3.98Q5.46 -2.8 6.44 -2.25Q7.42 -1.71 8.65 -1.71Q9.32 -1.71 9.95 -1.86Q10.58 -2.02 11.19 -2.39Q11.79 -2.77 12.35 -3.44L13.08 -2.86Q12.54 -1.82 11.8 -1.11Q11.06 -0.39 10.07 0Q9.07 0.39 7.73 0.39Z"/><path id="s28-n" d="M1.01 0V-1.09L3.92 -1.65H5.04L7.78 -1.09V0ZM2.86 0Q2.88 -0.64 2.9 -1.69Q2.91 -2.74 2.93 -3.88Q2.94 -5.01 2.94 -5.88V-7.31Q2.94 -8.09 2.93 -8.65Q2.91 -9.21 2.9 -9.69Q2.88 -10.16 2.86 -10.72L0.81 -10.98V-12.01L5.26 -13.75L5.71 -13.47L6.02 -10.28V-10.22V-5.88Q6.02 -5.01 6.03 -3.88Q6.05 -2.74 6.06 -1.69Q6.08 -0.64 6.1 0ZM9.52 0V-1.09L12.4 -1.65H13.52L16.3 -1.09V0ZM11.34 0Q11.37 -0.64 11.38 -1.68Q11.4 -2.72 11.41 -3.85Q11.42 -4.98 11.42 -5.88V-8.43Q11.42 -10.19 10.95 -10.85Q10.47 -11.51 9.35 -11.51Q8.74 -11.51 8.11 -11.3Q7.48 -11.09 6.83 -10.67Q6.19 -10.25 5.46 -9.55L5.18 -10.86H5.54Q6.3 -11.79 7.14 -12.43Q7.98 -13.08 8.9 -13.41Q9.83 -13.75 10.75 -13.75Q12.57 -13.75 13.52 -12.54Q14.48 -11.34 14.48 -8.71V-5.88Q14.48 -4.98 14.49 -3.85Q14.5 -2.72 14.52 -1.68Q14.53 -0.64 14.56 0Z"/><path id="s28-t" d="M3.95 -11.76V-13.38H9.02V-11.76ZM5.85 0.39Q4.26 0.39 3.33 -0.43Q2.41 -1.26 2.41 -3.02Q2.41 -3.64 2.42 -4.19Q2.44 -4.73 2.44 -5.54V-11.76H0.28V-13.13L3.7 -13.55L2.41 -12.54L3.58 -17.22H5.63L5.49 -12.82V-12.26V-3.33Q5.49 -2.3 5.89 -1.82Q6.3 -1.34 7 -1.34Q7.45 -1.34 7.85 -1.53Q8.26 -1.71 8.74 -2.04L9.44 -1.34Q9.07 -0.78 8.54 -0.39Q8.01 0 7.35 0.2Q6.69 0.39 5.85 0.39Z"/><path id="s28-i" d="M0.92 0V-1.09L3.84 -1.65H4.96L7.73 -1.09V0ZM2.77 0Q2.8 -0.64 2.81 -1.69Q2.83 -2.74 2.84 -3.88Q2.86 -5.01 2.86 -5.88V-7.2Q2.86 -8.34 2.84 -9.11Q2.83 -9.88 2.77 -10.72L0.73 -10.98V-12.01L5.57 -13.75L6.02 -13.47L5.94 -9.58V-5.88Q5.94 -5.01 5.95 -3.88Q5.96 -2.74 5.98 -1.69Q5.99 -0.64 6.02 0ZM4.26 -16.32Q3.42 -16.32 2.81 -16.87Q2.21 -17.42 2.21 -18.26Q2.21 -19.1 2.81 -19.64Q3.42 -20.19 4.26 -20.19Q5.12 -20.19 5.71 -19.64Q6.3 -19.1 6.3 -18.26Q6.3 -17.42 5.71 -16.87Q5.12 -16.32 4.26 -16.32Z"/><path id="s28-b" d="M0.84 0V-1.09L2.74 -1.46Q2.77 -2.13 2.77 -2.93Q2.77 -3.72 2.77 -4.49Q2.77 -5.26 2.77 -5.88V-18L0.67 -18.28V-19.35L5.43 -20.61L5.85 -20.36L5.74 -16.38V-11.4L5.82 -11.03V-2.21V-2.16L5.38 0.31ZM9.49 0.39Q8.65 0.39 7.87 0.13Q7.08 -0.14 6.36 -0.78Q5.63 -1.43 4.96 -2.55H4.48L4.73 -3.98Q5.74 -2.69 6.72 -2.07Q7.7 -1.46 8.68 -1.46Q9.63 -1.46 10.4 -2.02Q11.17 -2.58 11.63 -3.74Q12.1 -4.9 12.1 -6.64Q12.1 -9.27 11.17 -10.58Q10.25 -11.9 8.79 -11.9Q8.23 -11.9 7.57 -11.62Q6.92 -11.34 6.2 -10.79Q5.49 -10.25 4.65 -9.41L4.4 -10.95H5.1Q5.82 -11.93 6.61 -12.54Q7.39 -13.16 8.23 -13.45Q9.07 -13.75 9.97 -13.75Q11.48 -13.75 12.68 -12.95Q13.89 -12.15 14.62 -10.6Q15.34 -9.04 15.34 -6.8Q15.34 -4.62 14.56 -3Q13.78 -1.37 12.46 -0.49Q11.14 0.39 9.49 0.39Z"/><path id="s28-u" d="M6.16 0.39Q4.42 0.39 3.42 -0.74Q2.41 -1.88 2.44 -4.65L2.52 -12.1L3.19 -11.42L0.64 -11.98V-13.05L5.29 -13.58L5.6 -13.3L5.46 -9.58V-4.82Q5.46 -3.16 5.98 -2.51Q6.5 -1.85 7.48 -1.85Q8.15 -1.85 8.82 -2.11Q9.49 -2.38 10.15 -2.87Q10.81 -3.36 11.4 -4.03L11.9 -2.86H11.42Q10.72 -1.76 9.86 -1.05Q8.99 -0.34 8.06 0.03Q7.14 0.39 6.16 0.39ZM11.23 0.25 10.92 -3.02V-3.08L11 -11.62L9.16 -11.98V-13.02L13.72 -13.58L14.06 -13.3L13.97 -9.58V-1.46L15.71 -1.09V0Z"/><path id="s28-s" d="M5.63 0.39Q4.4 0.39 3.35 0.11Q2.3 -0.17 1.23 -0.76L1.18 -3.95H2.97L3.67 -0.48H2.38V-2.02Q3.16 -1.48 3.95 -1.23Q4.73 -0.98 5.68 -0.98Q6.66 -0.98 7.32 -1.2Q7.98 -1.43 8.3 -1.89Q8.62 -2.35 8.62 -2.94Q8.62 -3.75 8.02 -4.28Q7.42 -4.82 6.08 -5.24L4.73 -5.68Q3.7 -6.08 2.93 -6.59Q2.16 -7.11 1.75 -7.87Q1.34 -8.62 1.34 -9.6Q1.34 -10.72 1.95 -11.66Q2.55 -12.6 3.7 -13.17Q4.84 -13.75 6.52 -13.75Q7.7 -13.75 8.68 -13.47Q9.66 -13.19 10.61 -12.63L10.47 -9.69H8.76L8.15 -12.68H9.32V-11.37Q8.62 -11.9 7.95 -12.14Q7.28 -12.38 6.47 -12.38Q5.29 -12.38 4.66 -11.9Q4.03 -11.42 4.03 -10.58Q4.03 -9.77 4.56 -9.31Q5.1 -8.85 6.52 -8.34L7.56 -8.01Q8.93 -7.56 9.79 -6.93Q10.64 -6.3 11.02 -5.54Q11.4 -4.79 11.4 -3.84Q11.4 -2.63 10.72 -1.68Q10.05 -0.73 8.78 -0.17Q7.5 0.39 5.63 0.39Z"/></defs><rect x="40" y="16" width="32" height="2" fill="#8fb2ee"></rect><g fill="#b3cbf5"><use href="#b11_5-zero" x="40" y="40"/><use href="#b11_5-four" x="49.29" y="40"/><use href="#b11_5-slash" x="62.77" y="40"/><use href="#b11_5-A" x="72.93" y="40"/><use href="#b11_5-C" x="82.58" y="40"/><use href="#b11_5-T" x="92.58" y="40"/><use href="#b11_5-I" x="101.78" y="40"/><use href="#b11_5-V" x="106.51" y="40"/><use href="#b11_5-I" x="116.65" y="40"/><use href="#b11_5-T" x="121.39" y="40"/><use href="#b11_5-Y" x="130.67" y="40"/></g><g fill="#eae7e0"><use href="#s28-A" x="220" y="44"/><use href="#s28-y" x="245.06" y="44"/><use href="#s28-e" x="258.98" y="44"/><use href="#s28-a" x="273.14" y="44"/><use href="#s28-r" x="287.48" y="44"/><use href="#s28-o" x="306.07" y="44"/><use href="#s28-f" x="321.58" y="44"/><use href="#s28-c" x="337.94" y="44"/><use href="#s28-o" x="351.77" y="44"/><use href="#s28-n" x="367.28" y="44"/><use href="#s28-t" x="384.19" y="44"/><use href="#s28-r" x="393.6" y="44"/><use href="#s28-i" x="405.84" y="44"/><use href="#s28-b" x="414.35" y="44"/><use href="#s28-u" x="430.59" y="44"/><use href="#s28-t" x="447.14" y="44"/><use href="#s28-i" x="456.54" y="44"/><use href="#s28-o" x="465.06" y="44"/><use href="#s28-n" x="480.57" y="44"/><use href="#s28-s" x="497.62" y="44"/></g></svg>
